<mxfile host="app.diagrams.net" modified="2023-04-24T11:33:37.829Z" agent="Mozilla/5.0 (Windows NT 10.0; Win64; x64) AppleWebKit/537.36 (KHTML, like Gecko) Chrome/112.0.0.0 Safari/537.36" version="21.2.1" etag="UmICIHPd2tDya_II4V8f" type="github">
  <diagram name="Сторінка-1" id="_gUxiatn2e-7IblEWv7N">
    <mxGraphModel>
      <root>
        <mxCell id="0" />
        <mxCell id="1" parent="0" />
      </root>
    </mxGraphModel>
  </diagram>
</mxfile>
